HIERARCHY
ROOT hip
{
  OFFSET 0 0 0
  CHANNELS 6 Xposition Yposition Zposition Zrotation Yrotation Xrotation
  JOINT abdomen
  {
    OFFSET 0 20.6881 -0.73152
    CHANNELS 3 Zrotation Xrotation Yrotation
    JOINT chest
    {
      OFFSET 0 11.7043 -0.48768
      CHANNELS 3 Zrotation Xrotation Yrotation
      JOINT neck
      {
        OFFSET 0 22.1894 -2.19456
        CHANNELS 3 Zrotation Xrotation Yrotation
        JOINT head
        {
          OFFSET -0.24384 7.07133 1.2192
          CHANNELS 3 Zrotation Xrotation Yrotation
          JOINT leftEye
          {
            OFFSET 4.14528 8.04674 8.04672
            CHANNELS 3 Zrotation Xrotation Yrotation
            End Site
            {
              OFFSET 1 0 0
            }
          }
          JOINT rightEye
          {
            OFFSET -3.6576 8.04674 8.04672
            CHANNELS 3 Zrotation Xrotation Yrotation
            End Site
            {
              OFFSET 1 0 0
            }
          }
        }
      }
      JOINT rCollar
      {
        OFFSET -2.68224 19.2634 -4.8768
        CHANNELS 3 Zrotation Xrotation Yrotation
        JOINT rShldr
        {
          OFFSET -8.77824 -1.95073 1.46304
          CHANNELS 3 Zrotation Xrotation Yrotation
          JOINT rForeArm
          {
            OFFSET -28.1742 -1.7115 0.48768
            CHANNELS 3 Zrotation Xrotation Yrotation
            JOINT rHand
            {
              OFFSET -22.5879 0.773209 7.07136
              CHANNELS 3 Zrotation Xrotation Yrotation
              JOINT rThumb1
              {
                OFFSET -1.2192 -0.487915 3.41376
                CHANNELS 3 Zrotation Xrotation Yrotation
                JOINT rThumb2
                {
                  OFFSET -3.37035 -0.52449 3.41376
                  CHANNELS 3 Zrotation Xrotation Yrotation
                  End Site
                  {
                    OFFSET -1.78271 -1.18214 1.43049
                  }
                }
              }
              JOINT rIndex1
              {
                OFFSET -7.75947 0.938293 5.60832
                CHANNELS 3 Zrotation Xrotation Yrotation
                JOINT rIndex2
                {
                  OFFSET -2.54057 -0.884171 1.56538
                  CHANNELS 3 Zrotation Xrotation Yrotation
                  End Site
                  {
                    OFFSET -1.62519 -0.234802 1.16502
                  }
                }
              }
              JOINT rMid1
              {
                OFFSET -8.24714 1.18213 3.41376
                CHANNELS 3 Zrotation Xrotation Yrotation
                JOINT rMid2
                {
                  OFFSET -3.10165 -0.590103 1.0647
                  CHANNELS 3 Zrotation Xrotation Yrotation
                  End Site
                  {
                    OFFSET -2.48547 -0.328903 0.83742
                  }
                }
              }
              JOINT rRing1
              {
                OFFSET -8.82822 0.546677 1.51678
                CHANNELS 3 Zrotation Xrotation Yrotation
                JOINT rRing2
                {
                  OFFSET -2.60934 -0.819778 -0.0198488
                  CHANNELS 3 Zrotation Xrotation Yrotation
                  End Site
                  {
                    OFFSET -2.33842 -0.294052 0.168128
                  }
                }
              }
              JOINT rPinky1
              {
                OFFSET -8.27202 -0.0477905 -0.4584
                CHANNELS 3 Zrotation Xrotation Yrotation
                JOINT rPinky2
                {
                  OFFSET -1.82734 -0.647385 -0.700984
                  CHANNELS 3 Zrotation Xrotation Yrotation
                  End Site
                  {
                    OFFSET -1.69225 -0.51767 -0.607171
                  }
                }
              }
            }
          }
        }
      }
      JOINT lCollar
      {
        OFFSET 2.68224 19.2634 -4.8768
        CHANNELS 3 Zrotation Xrotation Yrotation
        JOINT lShldr
        {
          OFFSET 8.77824 -1.95073 1.46304
          CHANNELS 3 Zrotation Xrotation Yrotation
          JOINT lForeArm
          {
            OFFSET 28.1742 -1.7115 0.48768
            CHANNELS 3 Zrotation Xrotation Yrotation
            JOINT lHand
            {
              OFFSET 22.5879 0.773209 7.07136
              CHANNELS 3 Zrotation Xrotation Yrotation
              JOINT lThumb1
              {
                OFFSET 1.2192 -0.487915 3.41376
                CHANNELS 3 Zrotation Xrotation Yrotation
                JOINT lThumb2
                {
                  OFFSET 3.37035 -0.52449 3.41376
                  CHANNELS 3 Zrotation Xrotation Yrotation
                  End Site
                  {
                    OFFSET 1.78271 -1.18214 1.43049
                  }
                }
              }
              JOINT lIndex1
              {
                OFFSET 7.75947 0.938293 5.60832
                CHANNELS 3 Zrotation Xrotation Yrotation
                JOINT lIndex2
                {
                  OFFSET 2.54057 -0.884171 1.56538
                  CHANNELS 3 Zrotation Xrotation Yrotation
                  End Site
                  {
                    OFFSET 1.62519 -0.234802 1.16502
                  }
                }
              }
              JOINT lMid1
              {
                OFFSET 8.24714 1.18213 3.41376
                CHANNELS 3 Zrotation Xrotation Yrotation
                JOINT lMid2
                {
                  OFFSET 3.10165 -0.590103 1.0647
                  CHANNELS 3 Zrotation Xrotation Yrotation
                  End Site
                  {
                    OFFSET 2.48547 -0.328903 0.83742
                  }
                }
              }
              JOINT lRing1
              {
                OFFSET 8.82822 0.546677 1.51678
                CHANNELS 3 Zrotation Xrotation Yrotation
                JOINT lRing2
                {
                  OFFSET 2.60934 -0.819778 -0.0198488
                  CHANNELS 3 Zrotation Xrotation Yrotation
                  End Site
                  {
                    OFFSET 2.33842 -0.294052 0.168128
                  }
                }
              }
              JOINT lPinky1
              {
                OFFSET 8.27202 -0.0477905 -0.4584
                CHANNELS 3 Zrotation Xrotation Yrotation
                JOINT lPinky2
                {
                  OFFSET 1.82734 -0.647385 -0.700984
                  CHANNELS 3 Zrotation Xrotation Yrotation
                  End Site
                  {
                    OFFSET 1.69225 -0.51767 -0.607171
                  }
                }
              }
            }
          }
        }
      }
    }
  }
  JOINT rButtock
  {
    OFFSET -8.77824 4.35084 1.2192
    CHANNELS 3 Zrotation Xrotation Yrotation
    JOINT rThigh
    {
      OFFSET 0 -1.70687 -2.19456
      CHANNELS 3 Zrotation Xrotation Yrotation
      JOINT rShin
      {
        OFFSET 0 -36.8199 0.73152
        CHANNELS 3 Zrotation Xrotation Yrotation
        JOINT rFoot
        {
          OFFSET 0.73152 -45.1104 -5.12064
          CHANNELS 3 Zrotation Xrotation Yrotation
          End Site
          {
            OFFSET -1.1221 -3.69964 12.103
          }
        }
      }
    }
  }
  JOINT lButtock
  {
    OFFSET 8.77824 4.35084 1.2192
    CHANNELS 3 Zrotation Xrotation Yrotation
    JOINT lThigh
    {
      OFFSET 0 -1.70687 -2.19456
      CHANNELS 3 Zrotation Xrotation Yrotation
      JOINT lShin
      {
        OFFSET 0 -36.8199 0.73152
        CHANNELS 3 Zrotation Xrotation Yrotation
        JOINT lFoot
        {
          OFFSET -0.73152 -45.1104 -5.12064
          CHANNELS 3 Zrotation Xrotation Yrotation
          End Site
          {
            OFFSET 1.1221 -3.69964 12.103
          }
        }
      }
    }
  }
}
MOTION
Frames:	4
Frame Time:	0.03333
0.6718795746564865 47.2684770822525 0.1605427823960781 -4.763037540350269 3.345024101198038 2.9009008688148907 -2.3825966594035273 12.12755667800135 3.4900360609099903 2.58858534637418 -9.128098740784113 1.3316769665572143 -4.115430592874572 12.665404193062235 -2.2311041308297024 7.199488960698878 -18.912225198516904 -3.9311981928445254 0.004358968031363958 0.11875553860365967 0.003873424290698032 -0.14185555854176013 0.1474206152505867 0.08399163663644016 0.17663181354642385 -0.26240423524595974 0.08494348086019829 31.279349907882803 19.658874157826016 10.289921602566098 -20.02836860890349 -22.16527696055931 43.63581098440702 -3.592713227485734 -5.977552323371141 -4.705311342806261 -0.0468204131519085 0.11377392946034029 0.22299185594001764 0.23666696187544095 -0.1525962711354432 -0.0203930772318069 0.025800719424605822 0.0851425768724402 0.12561779764625974 6.530081756939792 5.312644933614624 0.45015050079971325 -0.04169585028369487 -0.05563976151555524 0.04560247836510416 2.55606553507528 1.126085604497186 0.08104586409282093 -0.03310456620530309 -0.04228490073875558 0.33901718650552337 8.547679510400185 0.6385277584388996 -0.2389857577378074 0.023723328060717024 -0.00931829901860146 0.05246852602825947 2.319433204393365 -0.7021327211458798 0.00047240363064158505 -0.05402498206580258 0.29521486319311424 -0.07909150951548492 -36.646755029394356 21.73077959915083 -13.278587840894714 19.078070729301277 -21.409776076085862 -41.991562470036925 4.166760745147687 -9.608876610234956 4.095133831982232 -0.06778055616738513 0.03778620731409726 -0.15333886744469696 0.08634639771365495 0.15508510135554593 -0.2787549610670298 0.04186777895170879 0.18356048017044643 -0.007380499645874794 -6.899279948562015 4.872319713296827 -0.31717557556114484 0.0013428525434215303 -0.05343102241227592 0.07326842640250526 -2.7269692478268697 0.7789697346267316 -0.054682828000452655 -0.06368153553087834 0.13512664827053397 0.1717890760227526 -8.875073529207345 0.8113486732740002 0.23030309319884026 -0.045733732723002116 0.13935586938809413 0.19850781556049044 -1.952477449253022 -0.6947872262195013 0.34134724150784973 -0.03731823263424561 0.03035805642659105 -0.008392594942653167 -19.98006551109316 -26.039088757771037 -20.45479268671302 -4.879486289283463 42.67079746223801 5.228632326162998 -4.47486887105967 -8.02960027034461 -7.508817982925001 0.12080358149845857 0.11712158926750602 -0.07803053567745864 21.59614632532612 -23.16814339110853 21.510898734295193 3.7765259977686476 43.235766804719376 -5.762180237141361 4.639123821541075 -7.123447184008657 9.23618989949415
0.3135203383862972 70.8387017250061 0.17141569405794144 -4.322905272876525 2.9258267904172057 5.5886298260863905 -2.9825472426059303 15.790273794951013 3.772396721528552 3.1228773210852507 -10.439942438817198 1.0857518433443798 -5.801211353153398 17.500944191452188 -4.928942408403056 10.215182257573234 -28.130409011811608 -7.034837859245612 0.054670701746633237 -0.1949629473812538 0.0602911070001207 -0.07850662120694969 0.13931889031704087 -0.05553936307084134 -0.054753064223070066 -0.03745110115794351 0.032811581772399956 53.864319794824596 31.893739084103792 14.902041844336704 -26.491476092163076 -31.010701492353277 66.66738645060843 -4.427081025644852 -9.441056301006805 -4.407166755346034 -0.07636130147733099 0.012643747370751416 -0.18863386998073786 -0.13750398098852154 -0.06460337094499205 0.05583114021444782 -0.12696681336819016 0.18721505826322637 -0.05415630312476665 8.822595478266845 5.743259332479956 0.27944032786155826 0.07562684269814306 0.047708924713391956 0.12488491301223209 3.309599325067767 0.8466719570620731 0.10030603705690486 -0.11869404022070311 0.03325976624593576 -0.3554570249509209 11.538452008314103 0.8233633495500228 0.15812533594899497 0.10050335215068153 -0.07662479736890539 -0.16208865993660065 2.3421303498921406 -0.8057201171502336 -0.4690025699608889 0.10754847883613812 -0.2696679279848567 -0.024141250260557176 -64.41789779841059 35.11725710817506 -23.250797217802145 25.39331315476655 -29.080367089502612 -64.06065158406224 5.934941334460371 -10.770429679544726 3.841222403360655 0.2141721073699742 0.16452789124394146 0.03267263678157912 -0.12228610607432157 -0.14406053570491065 0.14037415454380783 -0.08119686196628846 -0.17180983339452707 0.09999599716139652 -8.386148951623968 6.242853519320538 -0.4720706589195469 -0.2092647765338787 -0.07499787832512009 -0.021743133490368678 -3.3858844272471695 1.2774947834187957 -0.08315479172076815 -0.15259853897169104 -0.18602617846082103 0.049580289824269666 -11.486588674398904 0.831463953905658 -0.2805061575371976 0.16919190993106845 -0.03217275231169881 -0.2592830522386754 -2.3645444694271838 -0.6020472378341855 -0.018453997198610857 0.18473794075033317 -0.2423144611019837 -0.19165812299874613 -31.634444612642596 -38.23962003063845 -28.922599964959076 -4.847050574688719 66.92985696003369 6.171828089688868 -5.139822791479907 -10.107105613015184 -11.036481769416003 0.04425471662321668 -0.09636061563544401 0.07484553309011707 34.65567633916019 -34.80093397223885 29.39577839518463 3.621618588053228 66.721283473349 -4.607087246125953 5.773985365348081 -10.537836978870052 16.084716419881094
-2.324462030082941 56.70492649078369 -0.9138896130025387 -53.110632325575786 22.104022116535344 -52.02355990784407 -6.575399635196003 26.22589784666547 7.437663633472746 1.2291881637921747 -14.01914597901147 1.156068107241132 -7.05820052130164 17.13905003337365 -4.717747409737561 9.85018207096963 -29.32812195636107 -9.596871698995013 -0.832381920657937 -1.143658080406042 0.6385254105613725 0.447840402756368 -0.5799098476822337 -0.357086505315645 0.06436233997248465 -0.27133769579351324 0.9713011381868264 2.6499097729503163 17.702448432345907 68.91597351783585 -27.266979185620908 -38.829806431535495 84.41005957452384 -2.3267577285045573 -3.089224552157775 -1.789464525983501 0.2440425523228498 0.322948366070275 0.7107948951173368 -0.055675326524006905 -0.0023609509361501107 -0.38902276232733213 0.33034060510378577 -0.6267056081201067 0.9903556584238695 8.158673770184924 6.6920921365052015 0.06877594951720871 -0.8568695895754608 0.1974165861188751 0.5072159309023764 3.60871038429555 0.6949748429782651 0.9229241889560955 -0.10283444768963929 0.37954171270741394 -0.16930790308503968 11.12539461071029 0.799703360821687 -0.34884855012466914 0.302548992257827 -0.07348066919487811 0.4367694665245707 3.0462182660487893 -0.9107690135544115 0.5976021187058295 0.45130592334735614 0.2645132695956127 0.8510628615638922 -54.909048454796825 44.622711847771335 -20.06309670573842 30.7970941562503 -47.7255131084518 -97.67130898021048 12.103580152693665 -55.344616448357705 19.05316102939824 -0.29877349847239665 0.8545598116972329 -0.42021586274081013 0.31389062809633894 0.7554971492137481 -0.375919844817456 0.2385456374231647 -1.0967224078118896 0.6745000702806825 -9.577635324971318 5.5489972265405685 -0.4235294116227654 1.0604483403470097 -0.33392250571492854 0.4496745753527809 -3.189748501597672 1.4589063153216268 0.1362010557032755 0.31754728726238163 0.07108412656984989 0.47691790543528745 -11.982108653399575 0.6339246378251342 0.27303723895808285 0.383622537293085 -0.6615127857390206 -0.8962480313789645 -2.5771432854105276 -1.4176872976193635 0.4272736893092547 -0.11555068577904275 0.29197591278350016 0.9693528267260803 -74.13370528897033 -54.43067908080205 -67.04925549691468 -120.66031870750437 83.53085713399228 123.24463006300542 -1.6926995284646378 -10.880704791241875 -2.2349422702564263 -0.07467173679225197 -0.45819614347687093 -0.6931020904852122 53.07973937995982 -45.80964846135781 46.287468005124396 91.53771714326899 79.40182336561199 -91.2013234964567 3.3223470193799494 -20.445935638906803 13.686348426797183
-5.207933951169252 61.19588613510132 -1.6084413975477219 -57.8921301597053 0.9398789596318885 -41.464582639719175 -8.141952613323088 27.803452978884977 8.279303448663812 3.2621376211858175 -13.484787836842814 3.3039520392846353 -10.878300564654031 20.415592523519024 -10.425984947248276 14.590872086129265 -32.84540300154001 -17.55417868584327 0.20414450921432278 -0.8423327592267051 2.916435920638673 0.06820114640986982 0.32936335444394504 1.5428695106234762 0.9889469319075543 1.5024829222263083 0.751076949603692 -26.28366417157085 18.119955698193984 95.10496102222656 -27.071068869657434 -41.82141562762274 83.77653220824848 1.0090983378366192 -10.740603950986573 1.3203884781281816 -0.03647801264462826 -1.156764466371356 0.7677712659565255 -0.9084865564328637 -0.9038660401810559 -0.6995513365264381 0.5251563832527669 0.41484968193070726 0.19488456028835735 7.6370402704400036 7.84010691710636 0.8632915148600067 0.7429068694175931 2.118899704135437 0.568934800903081 1.5669797582285039 -1.9251293718162907 -0.9669319515521339 1.7695224013194737 -1.2211402799591957 -1.6746378402564797 11.82585953839907 1.0820842452034944 -0.0731861706477742 0.3522697812077579 0.28428485297380135 2.827570677225164 3.1171826508647524 1.081834943298789 -1.093489167013535 0.66196133706842 -1.4734065934861524 -1.2787591154671885 -66.93177624319046 52.9390033321117 5.667643161952391 30.306109422858516 -48.72204795364042 -95.91319096709252 16.840604917589943 -57.30433774011235 20.487678340019336 -1.2491721233648685 1.5516460902635312 -1.555924776891721 -1.2336872307428033 -3.0285908284614558 1.4972757567578197 0.13664113599727853 -2.6995001479757823 -1.578799400587211 -10.019315484065718 5.5565975195395 -0.8184393167669726 0.5046340660352587 1.5914341833346768 1.1078395011814375 -4.688755391144973 4.254411282105991 0.15198492918408738 1.401144792893004 -1.6390362262597287 3.2931498816688487 -12.786603338563172 -1.6261677229766014 -0.9349456420604353 0.3169355584448424 -2.0326463677492232 -1.7352125468495012 -3.4710229486947903 0.44478608089775584 0.8378880136243194 -0.993222310162865 -0.7932510732118464 2.2774429089234194 -67.60889387674885 -50.260527573618276 -61.93651056351246 -167.72314978720863 83.94784701301074 169.33111292161303 0.14872000537932872 -15.97892020473218 -8.720499518100786 0.018339858334277596 0.48152678902116514 -0.09835845930788596 38.35989966192237 -57.18021954251488 35.39219271283559 90.07270986819296 85.71234442281349 -90.7138255746362 2.535593323698636 -20.113804030136595 9.862630944505625
